<svg width="150" height="141" viewBox="0 0 150 141" fill="none" xmlns="http://www.w3.org/2000/svg">
<path d="M48.75 11.75H101.25C121.25 11.75 137.5 27.025 137.5 45.825V95.175C137.5 104.212 133.681 112.879 126.883 119.27C120.084 125.66 110.864 129.25 101.25 129.25H48.75C28.75 129.25 12.5 113.975 12.5 95.175V45.825C12.5 36.7877 16.3192 28.1206 23.1174 21.7303C29.9156 15.34 39.1359 11.75 48.75 11.75ZM47.5 23.5C41.5326 23.5 35.8097 25.7283 31.5901 29.6947C27.3705 33.6611 25 39.0407 25 44.65V96.35C25 108.041 35.0625 117.5 47.5 117.5H102.5C108.467 117.5 114.19 115.272 118.41 111.305C122.629 107.339 125 101.959 125 96.35V44.65C125 32.9587 114.938 23.5 102.5 23.5H47.5ZM107.813 32.3125C109.885 32.3125 111.872 33.0862 113.337 34.4634C114.802 35.8407 115.625 37.7086 115.625 39.6562C115.625 41.6039 114.802 43.4718 113.337 44.8491C111.872 46.2263 109.885 47 107.813 47C105.741 47 103.753 46.2263 102.288 44.8491C100.823 43.4718 100 41.6039 100 39.6562C100 37.7086 100.823 35.8407 102.288 34.4634C103.753 33.0862 105.741 32.3125 107.813 32.3125ZM75 41.125C83.288 41.125 91.2366 44.2199 97.0971 49.7287C102.958 55.2376 106.25 62.7093 106.25 70.5C106.25 78.2907 102.958 85.7624 97.0971 91.2713C91.2366 96.7801 83.288 99.875 75 99.875C66.712 99.875 58.7634 96.7801 52.9029 91.2713C47.0424 85.7624 43.75 78.2907 43.75 70.5C43.75 62.7093 47.0424 55.2376 52.9029 49.7287C58.7634 44.2199 66.712 41.125 75 41.125ZM75 52.875C70.0272 52.875 65.2581 54.7319 61.7417 58.0372C58.2254 61.3426 56.25 65.8256 56.25 70.5C56.25 75.1744 58.2254 79.6574 61.7417 82.9628C65.2581 86.2681 70.0272 88.125 75 88.125C79.9728 88.125 84.742 86.2681 88.2583 82.9628C91.7746 79.6574 93.75 75.1744 93.75 70.5C93.75 65.8256 91.7746 61.3426 88.2583 58.0372C84.742 54.7319 79.9728 52.875 75 52.875Z" fill="#2A3553"/>
</svg>
