<svg width="45" height="48" viewBox="0 0 45 48" fill="none" xmlns="http://www.w3.org/2000/svg">
<path d="M17.4125 20.58C20.1125 26.24 24.4625 30.88 29.7687 33.76L33.8937 29.36C34.4187 28.8 35.15 28.64 35.8063 28.86C37.9062 29.6 40.1562 30 42.5 30C42.9973 30 43.4742 30.2107 43.8258 30.5858C44.1775 30.9609 44.375 31.4696 44.375 32V39C44.375 39.5304 44.1775 40.0391 43.8258 40.4142C43.4742 40.7893 42.9973 41 42.5 41C34.0462 41 25.9387 37.4179 19.961 31.0416C13.9832 24.6654 10.625 16.0174 10.625 7C10.625 6.46957 10.8225 5.96086 11.1742 5.58579C11.5258 5.21071 12.0027 5 12.5 5H19.0625C19.5598 5 20.0367 5.21071 20.3883 5.58579C20.74 5.96086 20.9375 6.46957 20.9375 7C20.9375 9.5 21.3125 11.9 22.0062 14.14C22.2125 14.84 22.0625 15.62 21.5375 16.18L17.4125 20.58Z" fill="#2A3553"/>
</svg>
